<?xml version="1.0" encoding="UTF-8"?>
<svg width="24px" height="24px" viewBox="0 0 24 24" version="1.1" xmlns="http://www.w3.org/2000/svg">
    <g stroke="none" stroke-width="1" fill="none" fill-rule="evenodd">
        <path d="M19.2,11.4 C18.1,9.4 16,8.6 14.2,9.5 C13.4,9.8 12.7,10.4 12.1,11.2 C11.6,12 11.3,12.9 11.1,13.9 C10.2,12.5 9.5,11.1 9.2,9.8 C8.8,8.2 8.9,6.7 9.6,5.5 C9.9,5 10.3,4.5 10.9,4.2 C11.4,3.9 12.1,3.8 12.6,4 C13.7,4.4 14.4,5.7 14,6.8 C13.9,7.2 13.7,7.5 13.4,7.7 C13.1,7.9 12.8,8 12.4,8 C12.1,8 11.8,7.9 11.5,7.7 C11.3,7.5 11.1,7.2 11.1,6.9 C11.1,6.7 11.1,6.4 11.3,6.2 C11.4,6 11.7,5.8 11.9,5.8 C12.1,5.8 12.2,5.9 12.4,5.9 C12.5,6 12.5,6.1 12.5,6.2 C12.5,6.3 12.4,6.4 12.4,6.5 C12.3,6.6 12.1,6.6 12.1,6.6 C12,6.6 11.9,6.6 11.9,6.7 C11.9,6.8 11.9,6.8 12,6.9 C12.1,6.9 12.1,7 12.2,7 C12.3,7 12.4,7 12.5,6.9 C12.5,6.9 12.6,6.8 12.7,6.7 C12.7,6.5 12.7,6.4 12.7,6.3 C12.6,6.1 12.5,6 12.4,5.9 C12.2,5.8 12,5.8 11.8,5.8 C11.5,5.8 11.2,5.9 11,6.2 C10.8,6.4 10.7,6.8 10.7,7.1 C10.7,7.4 10.9,7.8 11.1,8 C11.4,8.3 11.8,8.4 12.2,8.4 C12.6,8.4 13.1,8.3 13.4,8 C13.8,7.7 14,7.3 14.2,6.8 C14.4,6.2 14.3,5.6 14.1,5 C13.9,4.4 13.4,4 12.8,3.7 C12.1,3.4 11.3,3.5 10.7,3.8 C10,4.2 9.6,4.8 9.2,5.4 C8.5,6.7 8.3,8.3 8.8,9.9 C9.1,11.3 9.8,12.7 10.7,14.1 C10.2,16.6 10.4,18.9 11.7,19.7 C12.1,20 12.6,20.1 13.1,20 C14.7,19.6 16.1,17.6 16.7,14.9 C17.5,15.2 18.2,15.3 18.9,15.1 C20.3,14.7 21.1,13.1 20.8,11.6 C20.5,10.9 20,10.3 19.4,9.8 C19.5,10.3 19.5,10.8 19.2,11.4 Z M16.2,14.5 C16.2,14.5 16.2,14.5 16.2,14.5 C15.6,17.3 14.3,19 13.1,19.3 C12.8,19.4 12.5,19.3 12.2,19.1 C11.3,18.5 11.2,16.5 11.5,14.5 C13.5,17.5 15.7,18.2 16.2,14.5 Z M19.9,11.4 C20.1,12.5 19.6,13.6 18.6,13.9 C18.1,14.1 17.5,14 16.9,13.7 C17,13.1 17,12.4 16.9,11.7 C16.8,10.9 16.5,10.1 16.1,9.4 C16.5,9.7 17,10.2 17.4,10.6 C17.8,11.1 18.2,11.5 18.6,12 C19,12.4 19.1,12.9 19.2,13.4 C18.5,13 17.8,12.5 17.3,11.8 C17,11.5 16.8,11.1 16.5,10.8 C16.9,11.6 17.2,12.4 17.3,13.2 C17.4,13.9 17.3,14.5 17.2,15.2 C16.6,15.3 15.9,15.2 15.3,14.9 C15.5,14.2 15.7,13.4 15.8,12.6 C15.9,11.7 15.8,10.8 15.6,10 C15.4,9.7 15.2,9.4 15,9.2 C14.8,8.9 14.5,8.7 14.2,8.6 C15.7,7.9 17.3,8.5 18.2,10.1 C18.3,10.4 18.4,10.6 18.5,10.9 C18.6,11.2 18.6,11.6 18.5,11.9 C18.4,12.2 18.3,12.5 18.1,12.7 C17.9,13 17.7,13.2 17.4,13.4 C17.8,12.8 18,12.2 18.1,11.7 C18.2,11.1 18.1,10.5 17.7,10.1 C18.7,10.6 19.7,11 19.9,11.4 Z" fill="currentColor" fill-rule="nonzero"></path>
    </g>
</svg> 